<svg width="123" height="14" viewBox="0 0 123 14" fill="none" xmlns="http://www.w3.org/2000/svg">
<path d="M18.8951 0H13.7533C13.2866 0 13 0.285163 13 0.749572V13.2071C13 13.6715 13.2866 13.9567 13.7533 13.9567H18.8951C20.0577 13.9567 20.9829 13.6308 21.6461 12.9871C22.3093 12.3435 22.645 11.4228 22.645 10.2659V3.69083C22.645 2.53388 22.3093 1.61321 21.6461 0.969555C20.9829 0.325901 20.0577 0 18.8951 0ZM19.3699 3.82119V10.1437C19.3699 10.494 19.3044 10.7466 19.1816 10.8688C19.0588 10.991 18.805 11.0562 18.4529 11.0562H16.2668V2.90866H18.4529C18.805 2.90866 19.0588 2.97385 19.1816 3.09606C19.3044 3.21827 19.3699 3.47084 19.3699 3.82119Z" fill="white"/>
<path d="M31.5653 0H24.7533C24.2866 0 24 0.285163 24 0.749572V13.2071C24 13.6715 24.2866 13.9567 24.7533 13.9567H31.5653C32.0156 13.9567 32.294 13.6715 32.294 13.2071V11.7976C32.294 11.3332 32.0156 11.048 31.5653 11.048H27.275V8.33492H30.7793C31.246 8.33492 31.5326 8.04975 31.5326 7.58534V6.17582C31.5326 5.71141 31.246 5.42625 30.7793 5.42625H27.275V2.90052H31.5653C32.0156 2.90052 32.294 2.61535 32.294 2.15095V0.749572C32.3022 0.285163 32.0156 0 31.5653 0Z" fill="white"/>
<path d="M43.1264 0H41.1696C40.7356 0 40.4409 0.252573 40.3672 0.684392L38.4431 9.65481L36.519 0.69254C36.4372 0.252573 36.1424 0 35.7167 0H33.7598C33.4569 0 33.2358 0.0896225 33.113 0.26072C33.0311 0.374786 32.9492 0.570327 33.0393 0.863638L36.2652 13.2642C36.3471 13.7041 36.65 13.9567 37.0922 13.9567H39.8186C40.228 13.9567 40.5228 13.7123 40.621 13.2886L43.8551 0.85549C43.9124 0.602917 43.8715 0.399229 43.7487 0.244426C43.6095 0.0814754 43.4048 0 43.1264 0Z" fill="white"/>
<path d="M52.9256 6.0862C51.984 5.70326 50.8951 5.45884 49.6833 5.36107C48.2587 5.23886 48.2587 4.72556 48.2587 4.55446V4.16338C48.2587 3.45455 48.3978 3.21012 48.4797 3.1205C48.5534 3.03903 48.7827 2.90052 49.4049 2.90052H50.2155C50.8296 2.90052 51.067 3.03088 51.1489 3.10421C51.2308 3.17753 51.3617 3.38937 51.3617 3.97599V4.0982C51.3617 4.56261 51.6483 4.84777 52.115 4.84777H53.8835C54.3502 4.84777 54.6368 4.56261 54.6368 4.0982V3.70712C54.6368 2.55017 54.2929 1.6295 53.6297 0.977702C52.9583 0.325901 52.0249 0 50.8459 0H48.7663C47.6036 0 46.6703 0.334048 46.0071 0.977702C45.3357 1.6295 45 2.55017 45 3.70712V4.43225C45 5.34477 45.1801 6.10249 45.5322 6.69726C45.8924 7.30018 46.3591 7.7157 46.9077 7.92754C47.4072 8.11493 47.9475 8.27788 48.5288 8.40009C49.1102 8.52231 49.6505 8.60378 50.1418 8.64452C50.5757 8.67711 50.936 8.79118 51.2144 8.97857C51.4518 9.13337 51.5664 9.34521 51.5664 9.63852V9.89109C51.5664 10.3555 51.4846 10.6895 51.3372 10.8281C51.2307 10.934 50.9851 11.048 50.4202 11.048H49.4377C48.8236 11.048 48.5862 10.9177 48.5043 10.8444C48.3651 10.714 48.2914 10.4125 48.2914 9.98886V9.82591C48.2914 9.3615 48.0048 9.07634 47.5381 9.07634H45.7696C45.3029 9.07634 45.0164 9.3615 45.0164 9.82591V10.2414C45.0164 11.3984 45.3603 12.3191 46.0234 12.9709C46.6948 13.6227 47.62 13.9486 48.7827 13.9486H51.0506C52.2133 13.9486 53.1385 13.6145 53.8098 12.9709C54.4812 12.3191 54.8169 11.3984 54.8169 10.2414V9.54075C54.8169 8.66082 54.6368 7.91939 54.2847 7.34092C53.9327 6.72985 53.4741 6.32248 52.9256 6.0862Z" fill="#FF8400"/>
<path d="M65.0227 0H63.2706C62.8039 0 62.5173 0.285163 62.5173 0.749572V10.1437C62.5173 10.494 62.4518 10.7466 62.329 10.8688C62.2062 10.991 61.9524 11.0562 61.6003 11.0562H60.1675C59.8318 11.0562 59.5862 10.991 59.4634 10.8688C59.3405 10.7466 59.275 10.494 59.275 10.1437V0.749572C59.275 0.285163 58.9885 0 58.5218 0H56.7533C56.2866 0 56 0.285163 56 0.749572V10.2659C56 11.4391 56.3357 12.3598 56.9907 12.9953C57.6457 13.6308 58.5709 13.9567 59.7499 13.9567H62.0424C63.2051 13.9567 64.1303 13.6308 64.7935 12.9871C65.4567 12.3435 65.7924 11.4228 65.7924 10.2659V0.72513C65.7924 0.285163 65.4976 0 65.0227 0Z" fill="#FF8400"/>
<path d="M72.8377 0H67.7533C67.2866 0 67 0.285163 67 0.749572V13.2071C67 13.6715 67.2866 13.9567 67.7533 13.9567H69.5218C69.9885 13.9567 70.275 13.6715 70.275 13.2071V9.36965H72.8377C74.0004 9.36965 74.9256 9.04375 75.5806 8.40009C76.2356 7.75644 76.5713 6.83577 76.5713 5.67882V3.69083C76.5713 2.53388 76.2356 1.62136 75.5806 0.969555C74.9256 0.334049 74.0086 0 72.8377 0ZM73.3044 3.82119V5.56476C73.3044 5.90695 73.239 6.15138 73.1161 6.27359C73.0015 6.3958 72.7559 6.46098 72.4038 6.46098H70.275V2.91681H72.4038C72.7559 2.91681 73.0015 2.98199 73.1161 3.10421C73.239 3.21012 73.3044 3.4627 73.3044 3.82119Z" fill="#FF8400"/>
<path d="M85.5653 0H78.7533C78.2866 0 78 0.285163 78 0.749572V13.2071C78 13.6715 78.2866 13.9567 78.7533 13.9567H85.5653C86.0156 13.9567 86.294 13.6715 86.294 13.2071V11.7976C86.294 11.3332 86.0156 11.048 85.5653 11.048H81.275V8.33492H84.7711C85.2378 8.33492 85.5244 8.04975 85.5244 7.58534V6.17582C85.5244 5.71141 85.2378 5.42625 84.7711 5.42625H81.275V2.90052H85.5653C86.0156 2.90052 86.294 2.61535 86.294 2.15095V0.749572C86.294 0.285163 86.0075 0 85.5653 0Z" fill="#FF8400"/>
<path d="M94.7045 8.59564C95.8835 8.00087 96.4812 6.90095 96.4812 5.32033V3.70712C96.4812 2.55017 96.1374 1.6295 95.4742 0.977702C94.8028 0.325901 93.8776 0 92.7149 0H87.7533C87.2866 0 87 0.285163 87 0.749572V13.2071C87 13.6715 87.2866 13.9567 87.7533 13.9567H89.5218C89.9885 13.9567 90.275 13.6715 90.275 13.2071V9.0356H91.4049L93.3945 13.3131C93.4928 13.5656 93.6401 13.7449 93.8203 13.8345C93.9758 13.916 94.1969 13.9486 94.4998 13.9486H96.1865C96.473 13.9486 96.6859 13.8589 96.8005 13.6878C96.9234 13.5167 96.9315 13.2968 96.8169 13.0034L94.7045 8.59564ZM93.2144 3.81304V5.42625C93.2144 5.744 93.1407 5.97213 93.0097 6.09435C92.8623 6.22471 92.5921 6.29803 92.2401 6.29803H90.2832V2.90052H92.2401C92.6003 2.90052 92.8623 2.9657 93.0097 3.10421C93.1407 3.23457 93.2144 3.47084 93.2144 3.81304Z" fill="#FF8400"/>
<path d="M100.522 0H98.7533C98.2866 0 98 0.285163 98 0.749572V13.2071C98 13.6715 98.2866 13.9567 98.7533 13.9567H100.522C100.988 13.9567 101.275 13.6715 101.275 13.2071V0.749572C101.275 0.285163 100.988 0 100.522 0Z" fill="#FF8400"/>
<path d="M108.083 0H105.75C104.571 0 103.646 0.325901 102.991 0.961408C102.336 1.59691 102 2.51758 102 3.69083V10.2659C102 11.4391 102.336 12.3598 102.991 12.9953C103.646 13.6308 104.571 13.9567 105.75 13.9567H108.083C109.262 13.9567 110.188 13.6308 110.843 12.9953C111.498 12.3598 111.833 11.4391 111.833 10.2659V3.69083C111.833 2.51758 111.498 1.59691 110.843 0.961408C110.188 0.325901 109.254 0 108.083 0ZM108.558 3.82119V10.1437C108.558 10.494 108.493 10.7466 108.37 10.8688C108.247 10.991 107.993 11.0562 107.641 11.0562H106.159C105.807 11.0562 105.562 10.991 105.447 10.8688C105.324 10.7466 105.267 10.494 105.267 10.1437V3.82119C105.267 3.47084 105.332 3.21827 105.447 3.09606C105.562 2.97385 105.807 2.90866 106.159 2.90866H107.641C107.993 2.90866 108.247 2.97385 108.37 3.09606C108.493 3.21827 108.558 3.47084 108.558 3.82119Z" fill="#FF8400"/>
<path d="M122.825 13.0034L120.705 8.59564C121.884 8.00087 122.481 6.90095 122.481 5.32033V3.70712C122.481 2.55017 122.137 1.6295 121.474 0.977702C120.803 0.325901 119.878 0 118.715 0H113.753C113.287 0 113 0.285163 113 0.749572V13.2071C113 13.6715 113.287 13.9567 113.753 13.9567H115.522C115.988 13.9567 116.275 13.6715 116.275 13.2071V9.0356H117.405L119.395 13.3131C119.493 13.5656 119.64 13.7449 119.82 13.8345C119.976 13.916 120.197 13.9486 120.5 13.9486H122.187C122.473 13.9486 122.686 13.8589 122.801 13.6878C122.923 13.5167 122.932 13.2968 122.825 13.0034ZM119.206 3.81304V5.42625C119.206 5.744 119.133 5.97213 119.002 6.09435C118.854 6.22471 118.584 6.29803 118.232 6.29803H116.275V2.90052H118.232C118.592 2.90052 118.854 2.9657 119.002 3.10421C119.133 3.23457 119.206 3.47084 119.206 3.81304Z" fill="#FF8400"/>
<path d="M9.95532 5.4672C9.87526 5.28477 9.69513 5.16488 9.49999 5.16488H6.21264L7.29341 0.645678C7.34845 0.411117 7.24337 0.166132 7.03322 0.0566702C6.82808 -0.0527914 6.57289 -0.000666827 6.42279 0.186982L0.118266 7.9744C-0.00682399 8.13077 -0.0368452 8.34448 0.0482158 8.53213C0.133277 8.71978 0.308402 8.83445 0.503542 8.83445H3.7909L2.71012 13.3537C2.65508 13.5882 2.76016 13.8332 2.97031 13.9427C3.04036 13.9791 3.12042 14 3.19547 14C3.34058 14 3.48068 13.9375 3.57574 13.8176L9.88527 6.02494C10.0054 5.86856 10.0354 5.65485 9.95532 5.4672Z" fill="#FF8400"/>
</svg>
